<svg id="Layer_5" enable-background="new 0 0 64 64" height="512" viewBox="0 0 64 64" width="512" xmlns="http://www.w3.org/2000/svg"><g><g><g><path d="m36 54v8h-6v-10.11c1.3 1.31 3.11 2.11 5.08 2.11z" fill="#fcd770"/></g><g><path d="m32 48h-4c.25 1.52.97 2.86 2 3.89v10.11h-7v-4h1c.55 0 1.05-.22 1.41-.59.37-.36.59-.86.59-1.41 0-1.1-.9-2-2-2h-1v-12-11c4.83 1.12 8.77 4.25 11 8.4v8.6z" fill="#fcd770"/></g><g><path d="m15 58v4h-7v-4.83-.01c1.22.54 2.58.84 4 .84z" fill="#fcd770"/></g><g><path d="m17 54v4h-2-3c-1.42 0-2.78-.3-4-.84-3.53-1.54-6-5.06-6-9.16v-.66c0-7.81 5.39-14.58 13-16.34v11 11.55z" fill="#fcd770"/></g><g><path d="m17 58h6v4h-8v-4z" fill="#e6e9ed"/></g><g><path d="m23 42v12c0-1.1-.9-2-2-2h-1.17c-.53 0-1.04.21-1.42.59l-1.41 1.41-2-.45v-11.55l4-5z" fill="#e6e9ed"/></g><g><path d="m23 31v11l-4-5z" fill="#ccd1d9"/></g><g><path d="m15 31 4 6-4 5z" fill="#ccd1d9"/></g><g><path d="m58 48h4c-.29 1.73-1.18 3.23-2.44 4.3-1.26 1.06-2.88 1.7-4.64 1.7h-5.92c0-.55-.22-1.05-.59-1.41-.36-.37-.86-.59-1.41-.59h-4c-1.1 0-2 .9-2 2h-5-.92c-1.97 0-3.78-.8-5.08-2.11-1.03-1.03-1.75-2.37-2-3.89h4 2 12 10z" fill="#aab2bd"/></g><g><path d="m56 36v12h-10v-12h8z" fill="#d3a06c"/></g><g><path d="m54 20v16h-8v-4h-8v-12h4 4 4z" fill="#dfb28b"/></g><g><path d="m38 32h8v4 12h-12v-8.6-7.4z" fill="#e6e9ed"/></g><g><path d="m48.41 52.59c.37.36.59.86.59 1.41 0 1.1-.45 2.1-1.17 2.83-.73.72-1.73 1.17-2.83 1.17s-2.1-.45-2.83-1.17c-.72-.73-1.17-1.73-1.17-2.83s.9-2 2-2h4c.55 0 1.05.22 1.41.59z" fill="#f0d0b4"/></g><g><path d="m24 54c1.1 0 2 .9 2 2 0 .55-.22 1.05-.59 1.41-.36.37-.86.59-1.41.59h-1-6v-4l1.41-1.41c.38-.38.89-.59 1.42-.59h1.17c1.1 0 2 .9 2 2z" fill="#f0d0b4"/></g><g><path d="m29.12 19.88c.54.54.88 1.29.88 2.12 0 1.66-1.34 3-3 3h-1.13c.09-.32.13-.65.13-1v-5h1c.83 0 1.58.34 2.12.88z" fill="#f0d0b4"/></g><g><path d="m22 28 1 3-4 6-4-6 1-3z" fill="#f0d0b4"/></g><g><path d="m26 19v5c0 .35-.04.68-.13 1-.44 1.73-2.01 3-3.87 3h-6c-1.86 0-3.43-1.27-3.87-3-.09-.32-.13-.65-.13-1v-5-3h14z" fill="#f0d0b4"/></g><g><path d="m12.13 25h-1.13c-.83 0-1.58-.34-2.12-.88s-.88-1.29-.88-2.12c0-1.66 1.34-3 3-3h1v5c0 .35.04.68.13 1z" fill="#f0d0b4"/></g><g><path d="m30 16v6c0-.83-.34-1.58-.88-2.12s-1.29-.88-2.12-.88h-1v-3z" fill="#656d78"/></g><g><path d="m11 19c-1.66 0-3 1.34-3 3v-6h4v3z" fill="#656d78"/></g><g><path d="m29.96 12h-8.96v-9.81-.01c2.08.38 3.95 1.35 5.44 2.72 1.96 1.8 3.26 4.3 3.52 7.1z" fill="#ff826e"/></g><g><path d="m17 2.19v9.81h-8.96c.45-4.94 4.16-8.94 8.96-9.82z" fill="#ff826e"/></g><g><path d="m21 2.19v9.81h-4v-9.81-.01c.65-.12 1.32-.18 2-.18s1.35.06 2 .18z" fill="#fc6e51"/></g><g><path d="m7 12h1.04 8.96 4 8.96 1.04c.55 0 1 .45 1 1v2c0 .55-.45 1-1 1h-1-4-14-4-1c-.55 0-1-.45-1-1v-2c0-.55.45-1 1-1z" fill="#fc6e51"/></g></g><g><path d="m59.477 47 3.451-8.628-1.857-.743-3.748 9.371h-.323v-12h-2v-16h-4v-4h-2v4h-2v-6h-2v6h-2v-4h-2v4h-4v12h-4v5.129c-2.357-2.894-5.574-5.002-9.225-5.968l-.454-1.361c1.458-.403 2.656-1.434 3.255-2.8h.424c2.206 0 4-1.794 4-4v-5c1.103 0 2-.897 2-2v-2c0-1.103-.897-2-2-2h-.174c-.957-5.76-5.883-10-11.826-10s-10.869 4.24-11.826 10h-.174c-1.103 0-2 .897-2 2v2c0 1.103.897 2 2 2v5c0 2.206 1.794 4 4 4h.424c.6 1.366 1.797 2.398 3.255 2.8l-.454 1.361c-7.815 2.061-13.225 9.047-13.225 17.181v.658c0 4.264 2.444 7.961 6 9.786v5.214h30v-8h3.101c.465 2.279 2.484 4 4.899 4s4.434-1.721 4.899-4h5.019c4.015 0 7.409-2.875 8.069-6.835l.194-1.165zm-12.477 0v-10h8v10zm-8-26h14v14h-6v-4h-8zm6 12v14h-10v-14zm-12 6.676v7.324h-.323l-3.749-9.372-1.857.743 3.452 8.629h-3.703l.194 1.165c.265 1.59.976 3.001 1.986 4.125v8.71h-5v-2c1.654 0 3-1.346 3-3s-1.346-3-3-3v-20.673c3.813 1.212 7.038 3.828 9 7.349zm-11.721-10.676.617 1.852-2.896 4.345-2.897-4.345.618-1.852zm.721 10.149-1.762-2.203 1.762-2.643zm-6 0v-4.846l1.762 2.643zm0 3.201 3-3.75 3 3.75v8.826c-.314-.111-.649-.176-1-.176h-1.171c-.801 0-1.555.312-2.122.879l-1.026 1.026-.681-.152zm2 12.064 1.121-1.121c.189-.189.441-.293.708-.293h1.171c.551 0 1 .449 1 1v1h2c.551 0 1 .449 1 1s-.449 1-1 1h-6zm4 4.586v2h-6v-2zm5-35v-4c1.103 0 2 .897 2 2s-.897 2-2 2zm2-5.444c-.591-.344-1.268-.556-2-.556v-1h2zm-.204-7.556h-6.796v-7.542c3.435 1.065 6.07 3.914 6.796 7.542zm-8.796-7.95v7.95h-2v-7.95c.329-.032.662-.05 1-.05s.671.018 1 .05zm-4 .408v7.542h-6.796c.726-3.628 3.361-6.477 6.796-7.542zm-9.001 9.542h.001 24v2h-24zm4.001 4v1c-.732 0-1.409.212-2 .556v-1.556zm-2 5c0-1.103.897-2 2-2v4c-1.103 0-2-.897-2-2zm4 2v-7h12v7c0 1.654-1.346 3-3 3h-6c-1.654 0-3-1.346-3-3zm-10 24v-.658c0-6.96 4.464-12.968 11-15.029v19.997l-1.085-.241c-2.305-.513-3.915-2.52-3.915-4.882v-4.187h-2v4.187c0 3.306 2.254 6.116 5.481 6.833l3.519.782v2.198h-4c-4.962 0-9-4.038-9-9zm6 10.574c.955.271 1.959.426 3 .426h2v2h-5zm22 2.426v-7.086c1.183.68 2.55 1.068 4 1.083v6.003zm14-4c-1.654 0-3-1.346-3-3 0-.551.449-1 1-1h4c.551 0 1 .449 1 1 0 1.654-1.346 3-3 3zm9.917-4h-5.102c-.414-1.161-1.514-2-2.816-2h-4c-1.302 0-2.402.839-2.816 2h-5.102c-2.624 0-4.896-1.625-5.785-4h31.404c-.887 2.375-3.158 4-5.783 4z"/><path d="m45 23h2v2h-2z"/><path d="m41 23h2v2h-2z"/><path d="m49 23h2v2h-2z"/><path d="m49 27h2v2h-2z"/><path d="m41 27h2v2h-2z"/><path d="m45 27h2v2h-2z"/><path d="m49 31h2v2h-2z"/><path d="m37 35h2v10h-2z"/><path d="m41 35h2v10h-2z"/><path d="m49 39h4v2h-4z"/><path d="m49 43h4v2h-4z"/></g></g></svg>