<?xml version="1.0"?>
<svg xmlns="http://www.w3.org/2000/svg" viewBox="0 0 64 64" width="512" height="512"><title>demolition-crane-truck-construction-transportation</title><g id="Flat"><rect x="52" y="14" width="2" height="22" style="fill:#a25b40"/><rect x="51" y="36" width="4" height="7" style="fill:#fed248"/><rect x="6" y="60" width="56" height="2" style="fill:#4c2e4c"/><rect x="2" y="60" width="2" height="2" style="fill:#4c2e4c"/><rect x="48.879" y="7.05" width="4.243" height="9.899" transform="translate(6.452 39.577) rotate(-45)" style="fill:#fed248"/><circle cx="53" cy="48" r="8" style="fill:#e99a48"/><polygon points="36 47 33 50 11 50 8 47 12 45 32 45 36 47" style="fill:#a25b40"/><rect x="8" y="49" width="28" height="12" rx="6" ry="6" style="fill:#4c2e4c"/><circle cx="30" cy="55" r="2" style="fill:#dde1e1"/><circle cx="22" cy="55" r="2" style="fill:#dde1e1"/><circle cx="14" cy="55" r="2" style="fill:#dde1e1"/><rect x="25.486" y="12" width="18.028" height="2" transform="translate(-1.417 21.321) rotate(-33.69)" style="fill:#ef694d"/><rect x="22.798" y="19" width="2.404" height="2" transform="translate(-7.063 16.672) rotate(-33.69)" style="fill:#ef694d"/><polygon points="28 35 50 14 46 10 22 26 28 35" style="fill:#a25b40"/><path d="M14,42V26h8a6,6,0,0,1,6,6V42Z" style="fill:#29abe2"/><polygon points="12 45 12 36 19 36 19 39 32 40 32 45 12 45" style="fill:#e99a48"/><rect x="14" y="26" width="5" height="10" style="fill:#fed248"/><polygon points="39.044 24.458 40.491 23.077 34.848 17.434 33.152 18.566 39.044 24.458" style="fill:#723b43"/><path d="M6.043,49.033h0a1.01,1.01,0,0,1-.129-1.493A10.9,10.9,0,0,1,14,44H30a10.9,10.9,0,0,1,8.087,3.54,1.011,1.011,0,0,1-.13,1.493h0a.989.989,0,0,1-1.322-.115A8.917,8.917,0,0,0,30,46H14a8.918,8.918,0,0,0-6.635,2.918A.987.987,0,0,1,6.043,49.033Z" style="fill:#d14f33"/></g></svg>
