<svg id="Capa_1" enable-background="new 0 0 512 512" height="512" viewBox="0 0 512 512" width="512" xmlns="http://www.w3.org/2000/svg"><g><g><path d="m459.5 504.5h-407v-325l203.5-99.5 203.5 99.5z" fill="#f5f5f7"/><path d="m256 80-15 7.334 188.5 92.166v123.177c0 83.326-45.782 159.913-119.175 199.366l-4.571 2.457h123.746 30v-325z" fill="#e5e1e5"/><g><g><path d="m256 497c-4.143 0-7.5-3.358-7.5-7.5v-84.81c0-4.142 3.357-7.5 7.5-7.5s7.5 3.358 7.5 7.5v84.81c0 4.142-3.357 7.5-7.5 7.5z" fill="#e5e1e5"/></g></g><g><g><g><path d="m278.5 306.59c-4.143 0-7.5-3.358-7.5-7.5v-33.479c0-4.142 3.357-7.5 7.5-7.5s7.5 3.358 7.5 7.5v33.479c0 4.142-3.357 7.5-7.5 7.5z" fill="#e5e1e5"/></g><g><path d="m233.5 306.59c-4.143 0-7.5-3.358-7.5-7.5v-33.479c0-4.142 3.357-7.5 7.5-7.5s7.5 3.358 7.5 7.5v33.479c0 4.142-3.357 7.5-7.5 7.5z" fill="#e5e1e5"/></g></g><g><path d="m256 404.69c-27.479 0-49.754-22.276-49.754-49.754v-49.077c0-3.739 3.031-6.769 6.769-6.769h85.97c3.739 0 6.769 3.031 6.769 6.769v49.077c0 27.479-22.275 49.754-49.754 49.754z" fill="#60b7ff"/></g><path d="m298.985 299.09h-30c3.739 0 6.769 3.03 6.769 6.769v49.078c0 22.25-14.608 41.084-34.754 47.448 4.734 1.495 9.772 2.306 15 2.306 27.478 0 49.754-22.275 49.754-49.754v-49.078c0-3.739-3.03-6.769-6.769-6.769z" fill="#26a6fe"/></g><path d="m497.326 222.036-241.326-116.536-241.326 116.536c-3.32 1.603-7.174-.816-7.174-4.503v-44.895c0-1.919 1.098-3.668 2.826-4.503l245.674-118.635 245.674 118.635c1.728.834 2.826 2.584 2.826 4.503v44.895c0 3.687-3.854 6.106-7.174 4.503z" fill="#d77f4a"/><g fill="#c86d36"><path d="m501.674 168.135-245.674-118.635-15 7.244 215.212 103.925c10.059 4.857 18.288 17.97 18.288 29.14v21.204l22.826 11.022c3.32 1.603 7.174-.816 7.174-4.503v-44.895c0-1.918-1.098-3.667-2.826-4.502z"/><path d="m226 95.713-53.447-5.838-38.703 18.611c1.414 18.13-8.48 35.259-24.891 43.092l-101.459 48.428v17.528c0 3.687 3.854 6.105 7.174 4.502l226.326-109.292z"/></g><path d="m498.5 474.5h-485c-3.314 0-6 2.686-6 6v18c0 3.314 2.686 6 6 6h485c3.314 0 6-2.686 6-6v-18c0-3.314-2.686-6-6-6z" fill="#9b8e99"/><path d="m498.5 474.5h-30c3.314 0 6 2.687 6 6v18c0 3.313-2.686 6-6 6h30c3.314 0 6-2.687 6-6v-18c0-3.314-2.686-6-6-6z" fill="#918291"/><g><ellipse cx="256" cy="113.391" fill="#fedf30" rx="105.891" ry="105.891" transform="matrix(.707 -.707 .707 .707 -5.199 214.231)"/><path d="m287.701 12.33c26.758 19.218 44.19 50.603 44.19 86.062 0 58.482-47.409 105.891-105.892 105.891-11.044 0-21.692-1.693-31.701-4.83 17.374 12.479 38.678 19.83 61.701 19.83 58.482 0 105.892-47.409 105.892-105.891.001-47.439-31.195-87.589-74.19-101.062z" fill="#fac600"/><path d="m275.455 41.452c5.99-.048 9.984 5.447 7.977 10.627-5.332 13.766-11.234 27.359-16.989 40.955-.348.823-.099 1.166.583 1.56 10.776 6.221 21.528 12.483 32.314 18.686 5.314 3.056 6.16 9.274 1.726 13.48-19.536 18.533-39.104 37.033-58.664 55.541-3.281 3.105-6.512 3.809-9.875 2.18-3.664-1.774-5.462-5.943-3.966-9.807 2.041-5.274 4.277-10.473 6.448-15.695 3.503-8.425 7.008-16.85 10.558-25.255.362-.858.059-1.163-.602-1.543-10.91-6.274-21.928-12.422-32.702-18.926-5.016-3.028-5.608-9.202-1.333-13.253 19.549-18.522 39.154-36.985 58.664-55.548 1.802-1.712 3.776-2.935 5.861-3.002z" fill="#fea95c"/><path d="m299.341 113.28c-10.786-6.203-21.538-12.465-32.314-18.686-.682-.394-.931-.737-.583-1.56 5.755-13.596 11.657-27.189 16.989-40.955 2.006-5.181-1.988-10.676-7.977-10.627-2.085.068-4.059 1.29-5.859 3.002-7.031 6.689-14.082 13.358-21.131 20.029-.908 2.953-6.433 14.401-9.499 22.373-1.605 4.175.057 8.889 3.928 11.13 8.814 5.101 17.619 10.218 26.447 15.294 5.314 3.056 6.16 9.274 1.726 13.48-12.45 11.811-24.92 23.601-37.385 35.395-1.743 4.159-3.493 8.315-5.12 12.519-1.495 3.865.303 8.034 3.966 9.808 3.364 1.628 6.594.924 9.875-2.18 19.56-18.508 39.128-37.008 58.664-55.541 4.433-4.207 3.587-10.425-1.727-13.481z" fill="#fe9738"/></g></g><path d="m303.08 106.778c-9.198-5.29-18.373-10.622-27.558-15.937 5.011-11.769 10.193-23.901 14.903-36.053 1.809-4.667 1.189-9.911-1.656-14.028-5.777-8.359-16.871-8.848-24.343-1.739-19.664 18.708-39.084 36.995-58.654 55.537-3.775 3.577-5.637 8.435-5.108 13.328.524 4.846 3.34 9.143 7.725 11.79 9.345 5.641 18.761 10.955 28.098 16.291-4.649 10.96-10.372 24.247-14.92 36.003-2.887 7.461.421 15.743 7.693 19.264 5.712 2.766 12.296 2.23 18.299-3.483 19.121-18.197 39.473-37.334 58.671-55.548 3.818-3.623 5.673-8.513 5.088-13.417-.591-4.961-3.593-9.337-8.238-12.008zm-7.175 14.541c-20.531 19.477-57.956 55.517-59.934 56.488-.146-.057-.506-.19-.416-.426 5.19-13.555 11.633-28.21 16.922-40.74 1.486-3.521.897-8.275-3.771-10.962-10.84-6.238-21.797-12.344-32.565-18.846-.8-.483-.766-.71-.051-1.388 12.869-12.194 55.404-53.494 59.804-56.459.396.085.544.299.545.384-5.302 13.67-11.217 27.314-16.9 40.739-1.795 4.24-.293 8.652 3.739 10.98 10.779 6.222 21.533 12.493 32.325 18.692 1.099.632 1.138.746.302 1.538zm163.595 267.061c4.143 0 7.5-3.358 7.5-7.5v-165.157l27.074 13.073c3.887 1.874 8.402 1.63 12.073-.675 3.665-2.302 5.853-6.261 5.853-10.591v-44.89c0-4.777-2.781-9.197-7.068-11.254l-137.002-66.157c-8.718-53.92-55.587-95.229-111.93-95.229-62.524 0-113.392 50.867-113.392 113.392 0 12.487 2.034 24.506 5.78 35.75l-133.388 64.41v-39.338l106.967-51.654c3.729-1.801 5.293-6.285 3.492-10.015-1.8-3.729-6.282-5.294-10.016-3.493l-108.357 52.326c-4.305 2.065-7.086 6.486-7.086 11.262v44.89c0 4.33 2.188 8.29 5.853 10.591 3.673 2.307 8.19 2.548 12.079.673l27.068-13.071v251.277h-31.5c-7.444 0-13.5 6.056-13.5 13.5v18c0 7.444 6.056 13.5 13.5 13.5h485c7.444 0 13.5-6.056 13.5-13.5v-18c0-7.444-6.056-13.5-13.5-13.5h-31.5v-56.12c0-4.142-3.357-7.5-7.5-7.5s-7.5 3.358-7.5 7.5v56.12h-188.5v-55.316c28.037-3.687 49.754-27.721 49.754-56.747v-49.078c0-7.868-6.4-14.269-14.269-14.269h-12.985v-25.979c0-4.142-3.357-7.5-7.5-7.5s-7.5 3.358-7.5 7.5v25.979h-30v-25.979c0-4.142-3.357-7.5-7.5-7.5s-7.5 3.358-7.5 7.5v25.979h-12.985c-7.868 0-14.269 6.401-14.269 14.269v49.078c0 29.026 21.717 53.06 49.754 56.747v55.316h-188.5v-258.52l94.078-45.428c18.445 37.702 57.199 63.73 101.922 63.73s83.477-26.029 101.922-63.73l94.078 45.428v172.4c0 4.142 3.357 7.5 7.5 7.5zm-245.754-33.443v-48.347h84.508v48.347c0 23.299-18.955 42.254-42.254 42.254s-42.254-18.956-42.254-42.254zm283.254 127.063v15h-482v-15zm-241-270.217c-54.253 0-98.392-44.138-98.392-98.391 0-54.254 44.139-98.392 98.392-98.392s98.392 44.138 98.392 98.392c0 54.253-44.139 98.391-98.392 98.391zm107.612-62.641c3.745-11.245 5.78-23.264 5.78-35.75 0-.269-.008-.536-.01-.804l127.618 61.626v39.338z"/></g></svg>