<?xml version="1.0" encoding="iso-8859-1"?>
<!-- Generator: Adobe Illustrator 19.0.0, SVG Export Plug-In . SVG Version: 6.00 Build 0)  -->
<svg version="1.1" id="Capa_1" xmlns="http://www.w3.org/2000/svg" xmlns:xlink="http://www.w3.org/1999/xlink" x="0px" y="0px"
	 viewBox="0 0 512 512" style="enable-background:new 0 0 512 512;" xml:space="preserve">
<polygon style="fill:#57555C;" points="277.538,401.875 260.067,331.994 113.196,340.819 100.138,393.05 "/>
<path style="fill:#4B494F;" d="M324.268,384.003c28.276,0,51.2,22.923,51.2,51.2c0,28.276-22.923,51.2-51.2,51.2h-256
	c-28.276,0-51.2-22.923-51.2-51.2c0-28.277,22.923-51.2,51.2-51.2H324.268z"/>
<g>
	<path style="fill:#FEB756;" d="M443.734,93.867H293.953c-2.342,0-4.481,1.323-5.529,3.417l-15.358,30.717l0.004,17.067h-68.271V128
		L254.2,45.666c1.117-1.862,3.129-3.001,5.3-3.001h184.234L443.734,93.867z"/>
	<path style="fill:#FEB756;" d="M443.734,93.867l17.665,211.965h42.071V42.665c0-9.426-7.642-17.068-17.068-17.068h-36.486
		c-3.414,0-6.181,2.767-6.181,6.181L443.734,93.867z"/>
</g>
<path style="fill:#FA8043;" d="M486.401,25.597h-20.604c9.426,0,17.068,7.642,17.068,17.068v263.167h20.604V42.665
	C503.468,33.239,495.827,25.597,486.401,25.597z"/>
<g>
	<path style="fill:#57555C;" d="M415.783,401.067h45.018c28.276,0,51.199-22.923,51.199-51.199v-45.02
		c0-3.414-2.767-6.181-6.181-6.181l-108.458-0.001c-2.836,0-5.309,1.931-5.997,4.682l-5.443,21.771
		c-0.976,3.901,1.975,7.68,5.997,7.68l11.503,0.001c3.414,0,6.181,2.767,6.181,6.181v55.905
		C409.602,398.3,412.369,401.067,415.783,401.067z"/>
	<path style="fill:#57555C;" d="M341.335,320.884V179.2c0-28.276-22.923-51.199-51.199-51.199H176.85
		c-3.414,0-6.181,2.767-6.181,6.181v27.953h119.468c9.425,0,17.065,7.641,17.065,17.065v142.715L341.335,320.884z"/>
</g>
<g>
	<path style="fill:#85828C;" d="M477.869,120.275c-4.268,0-7.726,3.459-7.726,7.726v34.134c0,4.267,3.458,7.726,7.726,7.726
		c4.268,0,7.726-3.459,7.726-7.726v-34.134C485.595,123.733,482.137,120.275,477.869,120.275z"/>
	<circle style="fill:#85828C;" cx="443.74" cy="68.27" r="25.601"/>
</g>
<circle style="fill:#57555C;" cx="443.74" cy="68.27" r="8"/>
<path style="fill:#4B494F;" d="M290.136,128.001h-20.604c28.276,0,51.199,22.923,51.199,51.199v141.684l-13.529,0.408v0.622
	l34.134-1.03V179.2C341.335,150.924,318.413,128.001,290.136,128.001z"/>
<path style="fill:#57555C;" d="M34.132,256.516v-28.467c0-3.414,2.767-6.181,6.181-6.181h55.906c3.414,0,6.181,2.767,6.181,6.181
	v28.466L34.132,256.516z"/>
<path style="fill:#4B494F;" d="M96.219,221.867H75.615c3.414,0,6.181,2.767,6.181,6.181v28.467H102.4v-28.467
	C102.4,224.634,99.632,221.867,96.219,221.867z"/>
<path style="fill:#FA8043;" d="M220.159,349.868h132.064c3.414,0,6.181-2.767,6.181-6.181v-21.772c0-3.414-2.767-6.181-6.181-6.181
	H204.799L220.159,349.868z"/>
<path style="fill:#85828C;" d="M187.734,260.637V127.999l-27.95,0.002c-3.414,0-6.18,2.767-6.181,6.181l-0.001,126.455H187.734z"/>
<path style="fill:#FEB756;" d="M32.325,348.06L1.811,317.547C0.651,316.388,0,314.816,0,313.176v-48.642
	c0-9.426,7.642-17.068,17.068-17.068h200.344c2.661,0,5.022,1.703,5.864,4.227l30.012,90.039c1.334,4.002-1.645,8.135-5.864,8.135
	L36.696,349.87C35.057,349.87,33.485,349.219,32.325,348.06z"/>
<g>
	<path style="fill:#FA8043;" d="M253.289,341.732l-30.012-90.039c-0.842-2.524-3.204-4.227-5.864-4.227h-20.604
		c2.661,0,5.022,1.703,5.864,4.227l30.012,90.039c1.334,4.002-1.645,8.135-5.864,8.135h20.604
		C251.643,349.868,254.623,345.735,253.289,341.732z"/>
	<path style="fill:#FA8043;" d="M179.202,282.409h-34.133c-4.267,0-7.726,3.459-7.726,7.726v34.133c0,4.267,3.459,7.726,7.726,7.726
		h34.133c4.267,0,7.726-3.459,7.726-7.726v-34.133C186.928,285.868,183.469,282.409,179.202,282.409z M171.476,316.542h-18.68
		v-18.68h18.68V316.542z"/>
</g>
<g>
	<path style="fill:#57555C;" d="M25.6,265.342c-4.267,0-7.726,3.459-7.726,7.726v34.133c0,4.267,3.459,7.726,7.726,7.726
		s7.726-3.459,7.726-7.726v-34.133C33.326,268.801,29.867,265.342,25.6,265.342z"/>
	<path style="fill:#57555C;" d="M51.201,265.342c-4.267,0-7.726,3.459-7.726,7.726v34.133c0,4.267,3.459,7.726,7.726,7.726
		s7.726-3.459,7.726-7.726v-34.133C58.927,268.801,55.468,265.342,51.201,265.342z"/>
	<path style="fill:#57555C;" d="M76.802,265.342c-4.267,0-7.726,3.459-7.726,7.726v34.133c0,4.267,3.459,7.726,7.726,7.726
		c4.267,0,7.726-3.459,7.726-7.726v-34.133C84.528,268.801,81.069,265.342,76.802,265.342z"/>
</g>
<circle style="fill:#85828C;" cx="68.27" cy="435.2" r="25.599"/>
<path style="fill:#4B494F;" d="M68.268,447.192c-4.267,0-7.726-3.459-7.726-7.726v-8.535c0-4.267,3.459-7.726,7.726-7.726
	s7.726,3.459,7.726,7.726v8.535C75.994,443.733,72.535,447.192,68.268,447.192z"/>
<circle style="fill:#85828C;" cx="153.6" cy="435.2" r="25.599"/>
<path style="fill:#4B494F;" d="M153.6,447.192c-4.267,0-7.726-3.459-7.726-7.726v-8.535c0-4.267,3.459-7.726,7.726-7.726
	c4.267,0,7.726,3.459,7.726,7.726v8.535C161.326,443.733,157.867,447.192,153.6,447.192z"/>
<circle style="fill:#85828C;" cx="238.94" cy="435.2" r="25.599"/>
<path style="fill:#4B494F;" d="M238.936,447.192c-4.267,0-7.726-3.459-7.726-7.726v-8.535c0-4.267,3.459-7.726,7.726-7.726
	c4.267,0,7.726,3.459,7.726,7.726v8.535C246.662,443.733,243.203,447.192,238.936,447.192z"/>
<circle style="fill:#85828C;" cx="324.27" cy="435.2" r="25.599"/>
<path style="fill:#4B494F;" d="M324.269,447.192c-4.268,0-7.726-3.459-7.726-7.726v-8.535c0-4.267,3.458-7.726,7.726-7.726
	s7.726,3.459,7.726,7.726v8.535C331.995,443.733,328.536,447.192,324.269,447.192z"/>
<circle cx="443.74" cy="68.27" r="8"/>
<g>
</g>
<g>
</g>
<g>
</g>
<g>
</g>
<g>
</g>
<g>
</g>
<g>
</g>
<g>
</g>
<g>
</g>
<g>
</g>
<g>
</g>
<g>
</g>
<g>
</g>
<g>
</g>
<g>
</g>
</svg>
