<svg id="Capa_1" enable-background="new 0 0 512 512" height="512" viewBox="0 0 512 512" width="512" xmlns="http://www.w3.org/2000/svg"><path d="m103.002 476.695h-49.547c-4.952 0-8.966-4.014-8.966-8.966v-374.094c0-3.989 1.024-7.912 2.974-11.392l24.119-43.044c2.91-5.193 10.383-5.193 13.293 0l24.119 43.044c1.95 3.48 2.974 7.403 2.974 11.392v374.094c0 4.952-4.014 8.966-8.966 8.966z" fill="#fcb143"/><path d="m108.994 82.243-24.119-43.044c-2.91-5.192-10.383-5.192-13.293 0l-12.411 22.148 11.709 20.896c1.95 3.48 2.974 7.403 2.974 11.392v374.094c0 4.952-4.014 8.966-8.966 8.966h38.114c4.952 0 8.966-4.014 8.966-8.966v-374.094c0-3.99-1.024-7.912-2.974-11.392z" fill="#fa9801"/><path d="m221.524 476.695h-49.548c-4.952 0-8.966-4.014-8.966-8.966v-374.094c0-3.989 1.024-7.912 2.974-11.392l24.119-43.044c2.91-5.193 10.383-5.193 13.293 0l24.119 43.044c1.95 3.48 2.974 7.403 2.974 11.392v374.094c.001 4.952-4.013 8.966-8.965 8.966z" fill="#fcb143"/><path d="m227.516 82.243-24.119-43.044c-2.91-5.192-10.383-5.192-13.293 0l-12.353 22.045 11.767 20.999c1.95 3.48 2.974 7.403 2.974 11.392v374.094c0 4.952-4.014 8.966-8.966 8.966h37.998c4.952 0 8.966-4.014 8.966-8.966v-374.094c0-3.99-1.024-7.912-2.974-11.392z" fill="#fa9801"/><path d="m340.046 476.695h-49.548c-4.952 0-8.966-4.014-8.966-8.966v-374.094c0-3.989 1.024-7.912 2.974-11.392l24.119-43.044c2.91-5.193 10.383-5.193 13.293 0l24.119 43.044c1.95 3.48 2.974 7.403 2.974 11.392v374.094c.001 4.952-4.013 8.966-8.965 8.966z" fill="#fcb143"/><path d="m346.038 82.243-24.119-43.044c-2.91-5.192-10.383-5.192-13.293 0l-12.353 22.045 11.767 20.999c1.95 3.48 2.974 7.403 2.974 11.392v374.094c0 4.952-4.014 8.966-8.966 8.966h37.998c4.952 0 8.966-4.014 8.966-8.966v-374.094c0-3.99-1.024-7.912-2.974-11.392z" fill="#fa9801"/><path d="m458.568 476.695h-49.548c-4.952 0-8.966-4.014-8.966-8.966v-374.094c0-3.989 1.024-7.912 2.974-11.392l24.119-43.044c2.91-5.193 10.383-5.193 13.293 0l24.119 43.044c1.95 3.48 2.974 7.403 2.974 11.392v374.094c.001 4.952-4.013 8.966-8.965 8.966z" fill="#fcb143"/><path d="m464.56 82.243-24.12-43.044c-2.91-5.192-10.383-5.192-13.293 0l-12.353 22.045 11.767 20.999c1.95 3.48 2.974 7.403 2.974 11.392v374.094c0 4.952-4.014 8.966-8.966 8.966h37.998c4.952 0 8.966-4.014 8.966-8.966v-374.094c.001-3.99-1.023-7.912-2.973-11.392z" fill="#f88604"/><path d="m488.957 211.431h-465.891c-8.584 0-15.544-6.959-15.544-15.544v-30.467c0-8.584 6.959-15.544 15.544-15.544h465.891c8.584 0 15.544 6.959 15.544 15.544v30.468c-.001 8.584-6.96 15.543-15.544 15.543z" fill="#e09974"/><path d="m488.957 149.877h-22.57v46.011c0 8.584-6.959 15.544-15.543 15.544h38.114c8.585 0 15.544-6.959 15.544-15.544v-30.468c-.002-8.584-6.961-15.543-15.545-15.543z" fill="#db8759"/><path d="m488.957 398.175h-465.891c-8.584 0-15.544-6.959-15.544-15.543v-30.468c0-8.584 6.959-15.543 15.544-15.543h465.891c8.584 0 15.544 6.959 15.544 15.543v30.468c-.001 8.584-6.96 15.543-15.544 15.543z" fill="#e09974"/><circle cx="79.166" cy="180.654" r="7.282"/><circle cx="196.75" cy="180.654" r="7.282"/><circle cx="314.335" cy="180.654" r="7.282"/><circle cx="431.919" cy="180.654" r="7.282"/><circle cx="196.75" cy="367.398" r="7.282"/><circle cx="314.335" cy="367.398" r="7.282"/><circle cx="431.919" cy="367.398" r="7.282"/><path d="m488.957 336.621h-22.57v46.011c0 8.584-6.959 15.543-15.543 15.543h38.114c8.585 0 15.544-6.959 15.544-15.543v-30.468c-.002-8.584-6.961-15.543-15.545-15.543z" fill="#db8759"/><path d="m253.227 476.695c15.562 0 23.655-18.803 12.74-29.896-.082-.084-.165-.167-.249-.251-7.186-7.186-16.284-11.293-25.656-12.324-2.854-8.757-7.759-16.991-14.718-23.95-12.712-12.712-29.679-18.575-46.316-17.588-13.905-20.569-37.445-34.091-64.142-34.091-42.185 0-76.484 33.762-77.352 75.739-9.05 1.19-17.793 5.262-24.745 12.214-.083.083-.166.167-.249.251-10.915 11.092-2.822 29.896 12.74 29.896z" fill="#7fd161"/><path d="m265.967 446.8c-.082-.084-.165-.167-.249-.251-7.186-7.186-16.284-11.293-25.656-12.324-2.854-8.757-7.759-16.991-14.718-23.95-12.712-12.712-29.679-18.575-46.316-17.588-13.906-20.569-37.445-34.092-64.142-34.092-6.553 0-12.912.824-18.988 2.357 18.647 4.711 34.599 16.189 45.089 31.672.835-.024 1.669-.031 2.504-.02 15.838-.296 31.77 5.585 43.856 17.671 6.959 6.959 11.864 15.193 14.718 23.95 9.372 1.03 18.471 5.138 25.656 12.324.083.083.166.167.249.251 10.915 11.092 2.822 29.896-12.74 29.896h37.998c15.561-.001 23.655-18.804 12.739-29.896z" fill="#51bf26"/><path d="m488.957 218.931c12.705 0 23.043-10.337 23.043-23.043v-30.468c0-12.706-10.337-23.043-23.043-23.043h-13.923v-48.742c0-5.26-1.359-10.466-3.93-15.058l-24.12-43.043c-2.672-4.767-7.726-7.728-13.191-7.728-5.464 0-10.516 2.962-13.187 7.728l-24.12 43.044c-2.572 4.59-3.931 9.797-3.931 15.058v48.742h-36.042v-48.743c0-5.26-1.359-10.466-3.93-15.058l-24.12-43.043c-2.672-4.767-7.725-7.728-13.189-7.728s-10.517 2.961-13.189 7.728l-24.121 43.045c-2.57 4.59-3.93 9.797-3.93 15.056v48.742h-36.044v-48.742c0-5.26-1.359-10.466-3.93-15.058l-24.12-43.043c-2.671-4.767-7.723-7.728-13.187-7.729-.001 0-.001 0-.002 0-5.464 0-10.517 2.961-13.189 7.728l-24.122 43.045c-2.57 4.59-3.93 9.797-3.93 15.056v48.742h-36.043v-48.741c0-5.262-1.359-10.469-3.93-15.058l-24.12-43.043c-2.671-4.767-7.723-7.728-13.187-7.729-.001 0-.001 0-.002 0-5.464 0-10.517 2.961-13.189 7.728l-24.119 43.044c-4.869 8.688-3.787 16.363-3.931 17.764 0 4.142 3.357 7.5 7.5 7.5s7.5-3.358 7.5-7.5c.139-1.606-.641-5.69 2.017-10.432l24.144-43.092c.034-.018.122-.017.182.048l24.12 43.043c1.319 2.354 2.017 5.026 2.017 7.726v48.742h-52.48v-10.747c0-4.142-3.357-7.5-7.5-7.5s-7.5 3.358-7.5 7.5v10.747h-13.923c-12.705 0-23.043 10.337-23.043 23.043v30.468c0 12.706 10.337 23.043 23.043 23.043h13.923v110.19h-13.923c-12.705 0-23.043 10.337-23.043 23.043v30.467c0 12.706 10.337 23.043 23.043 23.043h12.513c-2.726 7.146-4.493 14.674-5.203 22.425-8.64 2.243-16.466 6.722-22.905 13.161l-.276.278c-7.162 7.278-9.148 17.677-5.184 27.139 4.011 9.571 12.927 15.516 23.27 15.516h227.947c8.991 0 16.899-4.496 21.449-11.957 1.967 6.892 8.308 11.957 15.822 11.957h49.549c9.079 0 16.465-7.386 16.465-16.466v-62.054h36.042v62.054c0 9.079 7.386 16.466 16.466 16.466h49.548c9.08 0 16.466-7.386 16.466-16.466v-62.054h13.923c12.705 0 23.043-10.337 23.043-23.043v-30.467c0-12.706-10.337-23.043-23.043-23.043h-13.923v-110.19h13.922zm-81.404-125.296c0-2.699.697-5.371 2.017-7.726l24.145-43.092c.036-.017.121-.017.182.048l24.119 43.042c1.32 2.356 2.017 5.029 2.017 7.728v48.742h-52.481v-48.742zm-118.521 0c0-2.699.697-5.371 2.017-7.726l24.145-43.092c.035-.017.123-.017.182.048l24.119 43.042c1.32 2.356 2.017 5.029 2.017 7.728v48.742h-52.48zm-118.522 0c0-2.699.697-5.371 2.017-7.726l24.145-43.092c.034-.018.122-.017.182.048l24.119 43.042c1.32 2.356 2.017 5.029 2.017 7.728v48.742h-52.48zm82.717 375.561h-227.947c-6.301 0-8.815-4.832-9.436-6.313-.603-1.439-2.238-6.474 2.029-10.811l.218-.219c5.572-5.572 12.633-9.058 20.421-10.082 3.673-.483 6.443-3.576 6.519-7.28.38-18.351 7.815-35.544 20.936-48.412 13.139-12.886 30.512-19.983 48.919-19.983 23.239 0 44.894 11.511 57.928 30.792 1.483 2.194 4.009 3.438 6.657 3.286 15.111-.893 29.884 4.72 40.57 15.405 5.962 5.961 10.298 13.017 12.89 20.97.913 2.802 3.382 4.809 6.311 5.131 8.086.889 15.408 4.406 21.158 10.156l.222.224c6.194 6.295 1.592 17.136-7.395 17.136zm20.806-24.375c-.808-1.151-1.711-2.256-2.731-3.293l-.28-.283c-6.957-6.956-15.849-11.732-25.423-13.726-3.28-8.146-8.078-15.468-14.282-21.844h42.716zm67.479 22.908c0 .809-.657 1.466-1.466 1.466h-49.549c-.809 0-1.466-.658-1.466-1.466v-62.054h52.48v62.054zm118.523 0c0 .809-.658 1.466-1.467 1.466h-49.548c-.809 0-1.467-.658-1.467-1.466v-62.054h52.481v62.054zm28.922-123.609c4.435 0 8.044 3.609 8.044 8.044v30.467c0 4.435-3.608 8.044-8.044 8.044h-279.396c-8.383-3.622-17.474-5.565-26.745-5.594-16.009-21.355-41.1-33.986-67.93-33.986-22.358 0-43.461 8.62-59.421 24.273-4.757 4.665-8.885 9.807-12.367 15.306h-20.032c-4.435 0-8.044-3.609-8.044-8.044v-30.467c0-4.435 3.608-8.044 8.044-8.044h465.891zm-436.969-14.999v-110.19h52.48v110.19zm67.48 0v-110.19h36.043v110.19zm51.042 0v-110.19h52.48v110.19zm111.023-65.205c4.142 0 7.5-3.358 7.5-7.5v-37.486h52.48v110.19h-52.48v-37.372c0-4.142-3.357-7.5-7.5-7.5s-7.5 3.358-7.5 7.5v37.372h-36.043v-110.19h36.043v37.486c0 4.142 3.357 7.5 7.5 7.5zm74.979 65.205v-110.19h36.042v110.19zm51.041 0v-110.19h52.481v110.19zm-384.487-125.189c-4.435 0-8.044-3.608-8.044-8.044v-30.468c0-4.435 3.608-8.044 8.044-8.044h465.891c4.435 0 8.044 3.608 8.044 8.044v30.468c0 4.435-3.608 8.044-8.044 8.044z"/></svg>