<svg id="Capa_1" enable-background="new 0 0 511.999 511.999" height="512" viewBox="0 0 511.999 511.999" width="512" xmlns="http://www.w3.org/2000/svg"><g><path clip-rule="evenodd" d="m40.839 456.793h319.354v-213.025l-162.682-104.599-162.681 104.599v206.987c0 3.969 1.871 6.038 6.009 6.038z" fill="#f6faff" fill-rule="evenodd"/><path clip-rule="evenodd" d="m34.83 194.161 58.11-37.332v-73.503h-58.11z" fill="#e1edfd" fill-rule="evenodd"/><path d="m38.6 246.348c-11.65 7.455-27.156 4.082-34.64-7.568-7.455-11.65-4.082-27.156 7.568-34.612l172.433-110.864c8.674-5.556 19.445-5.131 27.496.255l172.036 110.608c11.65 7.456 15.023 22.961 7.568 34.612-7.484 11.65-22.989 15.023-34.64 7.568l-158.91-102.16z" fill="#365e7d"/><path d="m182.515 94.239 1.446-.935c8.674-5.556 19.445-5.131 27.496.255l172.036 110.608c11.65 7.456 15.023 22.961 7.568 34.612-7.484 11.65-22.989 15.023-34.64 7.568l-1.53-.992c2.381-1.758 4.45-3.94 6.15-6.576 7.483-11.65 4.082-27.156-7.568-34.612z" fill="#294b64"/><g clip-rule="evenodd" fill-rule="evenodd"><path d="m338.676 456.793c-10.941-6.264-24.293-17.745-32.995-26.617-46.318-47.254-55.162-105.223-27.043-165.403 2.92-6.207 6.236-12.33 9.383-18.453 2.353-4.507 4.139-6.123 5.67-5.981 1.615.17 2.976 2.296 4.45 5.131 1.332 2.551 2.494 5.018 4.025 7.483 2.183 3.487 18.623 28.573 22.224 25.937 1.983-1.446 1.105-9.836 1.19-12.472.311-10.092 2.381-22.28 4.563-32.173 3.316-14.712 8.391-29.141 15.733-42.322 13.776-23.981 30.756-39.175 56.041-50.23 2.239-.992 13.464-6.746 14.314-2.466.426 2.268-3.005 8.561-3.939 11.225-4.139 11.622-6.69 26.277-6.464 38.608.369 14.655 4.395 27.525 14.23 38.608 16.923 20.098 22.564 41.812 18.396 67.635-2.324 14.401 4.395 6.406 9.213.369 2.211-2.75 4.337-5.5 6.435-8.362 5.726-8.249 9.694-16.668 12.416-26.333 1.899-7.427 2.494-10.999 2.409-18.652-.142-11.707 2.551-10.148 8.221-1.672 14.201 21.231 24.548 40.904 30.444 65.963 2.551 10.885 3.996 21.94 4.365 33.108 1.332 56.523-31.04 94.507-81.015 117.071h-10.403l-35.546-2.721-35.943 2.721h-10.374z" fill="#e6646e"/><path d="m465.103 265.595c.51-1.502.992-3.061 1.417-4.62 1.899-7.427 2.494-10.999 2.409-18.652-.142-11.707 2.551-10.148 8.221-1.672 14.201 21.231 24.548 40.904 30.444 65.963 2.551 10.885 3.996 21.94 4.365 33.108 1.332 56.523-31.04 94.507-81.015 117.071h-27.099c49.975-22.564 82.374-60.548 81.014-117.071-.34-11.168-1.786-22.224-4.337-33.108-3.57-15.139-8.758-28.292-15.419-41.019z" fill="#dc4655"/><path d="m349.052 456.793c-5.386-12.699-9.299-31.096-10.376-44.646-3.26-46.007 15.535-78.322 59.926-93.431 2.381-.822 9.525-3.43 8.815 1.474-.34 2.466-2.353 6.718-3.118 9.695-2.438 9.525-3.231 21.175-1.843 30.898 1.219 7.512 3.855 14.145 8.76 19.984l.51.595c20.467 23.273 28.488 61.371 8.815 75.43h-71.489z" fill="#ffe17d"/><path d="m377.739 328.128c6.18-3.628 13.152-6.803 20.863-9.411 2.381-.822 9.525-3.43 8.815 1.474-.34 2.495-2.353 6.718-3.118 9.695-2.438 9.525-3.231 21.175-1.843 30.898 1.219 7.512 3.855 14.145 8.76 19.984l.51.595c20.467 23.273 28.488 61.371 8.815 75.43h-27.07c19.643-14.06 11.622-52.157-8.845-75.43l-.51-.595c-4.904-5.84-7.512-12.473-8.73-19.984-1.389-9.723-.596-21.373 1.814-30.898.142-.54.341-1.134.539-1.758z" fill="#ffc369"/><path d="m438.457 302.785c-.595-.992-.68-3.288 0-7.483 4.167-25.823-1.474-47.537-18.396-67.635-9.836-11.083-13.861-23.953-14.23-38.608-.227-12.331 2.325-26.986 6.464-38.608.935-2.664 4.365-8.957 3.939-11.225-.851-4.252-12.075 1.474-14.314 2.466-6.01 2.636-11.537 5.471-16.668 8.645-.028.028-.028.085-.057.113-4.11 11.622-6.661 26.277-6.435 38.608.368 14.655 4.365 27.525 14.23 38.608 8.136 9.666 13.663 19.701 16.725 30.388 12.386 43.003 15.05 44.731 28.742 44.731z" fill="#dc4655"/><path d="m169.221 318.49h56.552c3.316 0 6.009 2.693 6.009 5.981v132.322h-68.542v-132.322c0-3.288 2.693-5.981 5.981-5.981z" fill="#8b5e5e"/><path d="m195.782 318.49h29.991c3.316 0 6.009 2.693 6.009 5.981v132.322h-30.018v-132.322c-.001-3.288-2.694-5.981-5.982-5.981z" fill="#785252"/><path d="m197.511 253.122c16.526 0 30.019-13.493 30.019-30.019s-13.492-30.02-30.019-30.02c-16.526 0-30.02 13.493-30.02 30.02.001 16.527 13.494 30.019 30.02 30.019z" fill="#bed8fb"/><path d="m197.511 193.084c16.583 0 30.019 13.436 30.019 30.02 0 16.583-13.436 30.019-30.019 30.019-5.472 0-10.601-1.474-14.996-4.025 8.958-5.188 14.996-14.882 14.996-25.994s-6.038-20.807-14.996-25.994c4.395-2.552 9.525-4.026 14.996-4.026z" fill="#9dc6fb"/><path d="m92.94 88.315h-30.019v82.801l30.019-19.304z" fill="#d2e5fd"/><path d="m27.176 88.315h73.417c3.289 0 6.01-2.693 6.01-5.981v-21.118c0-3.316-2.721-6.009-6.01-6.009h-73.417c-3.288 0-5.981 2.693-5.981 6.009v21.118c0 3.288 2.693 5.981 5.981 5.981z" fill="#365e7d"/><path d="m70.575 88.315h30.019c3.289 0 6.01-2.693 6.01-5.981v-21.118c0-3.316-2.721-6.009-6.01-6.009h-30.019c3.316 0 6.01 2.693 6.01 6.009v21.118c0 3.288-2.694 5.981-6.01 5.981z" fill="#294b64"/><path d="m71.057 318.49h55.956c3.316 0 6.01 2.693 6.01 5.981v55.984c0 3.288-2.693 6.009-6.01 6.009h-55.956c-3.317 0-6.01-2.721-6.01-6.009v-55.984c0-3.288 2.693-5.981 6.01-5.981z" fill="#bed8fb"/><path d="m99.035 318.49h27.979c3.316 0 6.01 2.693 6.01 5.981v55.984c0 3.288-2.693 6.009-6.01 6.009h-27.979z" fill="#9dc6fb"/></g></g></svg>