<svg height="512" viewBox="0 0 60 60" width="512" xmlns="http://www.w3.org/2000/svg"><g id="Page-1" fill="none" fill-rule="evenodd"><g id="044---Scaffolding-Errection"><g id="Icons" transform="translate(1 1)"><path id="Path" d="m6 2 .00002771 52h-4.00002771v-52c.0032948-1.10320187.89679813-1.9967052 2-2 .53059053-.00282307 1.0395388.2101411 1.41.59.3798589.3704612.59282307.87940947.59 1.41z" fill="#9e9e9e"/><rect id="Rectangle" fill="#707070" height="4" rx="2" width="8" y="54"/><rect id="Rectangle" fill="#707070" height="4" rx="2" width="8" x="23" y="54"/><path id="Rectangle" d="m6 25h19v4h-19z" fill="#ff9801"/><path id="Rectangle" d="m22 25h3v4h-3z" fill="#f57c00"/><path id="Rectangle" d="m6 50h19v4h-19z" fill="#ff9801"/><path id="Rectangle" d="m22 50h3v4h-3z" fill="#f57c00"/><path id="Rectangle" d="m29 48h9v6h-9z" fill="#f44335"/><path id="Rectangle" d="m38 48h10v6h-10z" fill="#ff5722"/><path id="Path" d="m58 48v5c0 .5522847-.4477153 1-1 1h-9v-6z" fill="#ff9801"/><path id="Path" d="m55 48v5c0 .5522847-.4477153 1-1 1h3c.5522847 0 1-.4477153 1-1v-5z" fill="#f57c00"/><path id="Rectangle" d="m29 42h4v6h-4z" fill="#ff5722"/><path id="Rectangle" d="m33 42h10v6h-10z" fill="#ff9801"/><path id="Rectangle" d="m29 30h4v6h-4z" fill="#ff5722"/><path id="Rectangle" d="m33 30h10v6h-10z" fill="#ff9801"/><path id="Rectangle" d="m29 24h9v6h-9z" fill="#f44335"/><path id="Rectangle" d="m38 24h10v6h-10z" fill="#ff5722"/><path id="Rectangle" d="m33 18h10v6h-10z" fill="#ff9801"/><path id="Rectangle" d="m38 12h10v6h-10z" fill="#ff5722"/><path id="Rectangle" d="m43 6h10v6h-10z" fill="#f44335"/><path id="Rectangle" d="m43 42h10v6h-10z" fill="#f44335"/><path id="Rectangle" d="m53 42h5v6h-5z" fill="#ff5722"/><path id="Rectangle" d="m55 42h3v6h-3z" fill="#d84315"/><path id="Rectangle" d="m48 36h10v6h-10z" fill="#ff9801"/><path id="Rectangle" d="m55 36h3v6h-3z" fill="#f57c00"/><path id="Rectangle" d="m38 36h10v6h-10z" fill="#ff5722"/><path id="Rectangle" d="m43 30h10v6h-10z" fill="#f44335"/><path id="Rectangle" d="m53 30h5v6h-5z" fill="#ff5722"/><path id="Rectangle" d="m55 30h3v6h-3z" fill="#d84315"/><path id="Rectangle" d="m48 24h10v6h-10z" fill="#ff9801"/><path id="Rectangle" d="m55 24h3v6h-3z" fill="#f57c00"/><path id="Rectangle" d="m43 18h10v6h-10z" fill="#f44335"/><path id="Rectangle" d="m53 18h5v6h-5z" fill="#ff5722"/><path id="Rectangle" d="m55 18h3v6h-3z" fill="#d84315"/><path id="Rectangle" d="m48 12h10v6h-10z" fill="#ff9801"/><path id="Rectangle" d="m55 12h3v6h-3z" fill="#f57c00"/><path id="Path" d="m58 7v5h-5v-6h4c.5522847 0 1 .44771525 1 1z" fill="#ff5722"/><path id="Path" d="m57 6h-3c.5522847 0 1 .44771525 1 1v5h3v-5c0-.55228475-.4477153-1-1-1z" fill="#d84315"/><path id="Rectangle" d="m29 36h9v6h-9z" fill="#f44335"/><path id="Path" d="m29 2 .0000277 52h-4.0000277v-52c.0032948-1.10320187.8967981-1.9967052 2-2 .5305905-.00282307 1.0395388.2101411 1.41.59.3798589.3704612.5928231.87940947.59 1.41z" fill="#9e9e9e"/></g><g id="Icons_copy" fill="#000" fill-rule="nonzero"><path id="Shape" d="m58 6h-14c-.5522847 0-1 .44771525-1 1v5h-4c-.5522847 0-1 .4477153-1 1v5h-4c-.5522847 0-1 .4477153-1 1v5h-2v-21c0-1.65685425-1.3431458-3-3-3s-3 1.34314575-3 3v1.615l-8.5 9.394-8.5-9.394v-1.615c0-1.65685425-1.34314575-3-3-3s-3 1.34314575-3 3v51.184c-1.37654748.4848523-2.2026937 1.8918441-1.95538732 3.330178.24730637 1.4383339 1.49595006 2.4885874 2.95538732 2.485822h4c1.65685425 0 3-1.3431458 3-3-.00331443-.3414397-.06556225-.679743-.184-1h13.368c-.1184378.320257-.1806856.6585603-.184 1 0 1.6568542 1.3431458 3 3 3h4c1.6568542 0 3-1.3431458 3-3-.0033144-.3414397-.0655622-.679743-.184-1h25.184c1.1045695 0 2-.8954305 2-2v-46c0-1.1045695-.8954305-2-2-2zm-9 42h-4v-4h8v4zm-10 0h-4v-4h8v4zm-1 6h-7v-4h7zm1-22h4v4h-8v-4zm1-6h8v4h-8zm5-6h8v4h-8zm5-6h8v4h-8zm8 28h-8v-4h8zm-14 0h-4v-4h8v4zm-10 0h-3v-4h7v4zm-1 6h-2v-4h2zm12-16h8v4h-8zm10 4v-4h3v4zm3-6h-8v-4h8zm-3-6v-4h3v4zm-22 12h-2v-4h2zm22 8h3v4h-3zm3-32h-3v-4h3zm-13-4h8v4h-8zm-5 6h8v4h-8zm-5 6h8v4h-8zm-1 6h4v4h-7v-4zm-7-23c0-.55228475.4477153-1 1-1s1 .44771525 1 1v51h-2zm-2 29.6v15.8l-7.151-7.9zm-8.5 6.413-7.247-8.013h14.494zm8.5-10.013h-17v-2h17zm-9.849 11.5-7.151 7.9v-15.8zm1.349 1.491 7.247 8.009h-14.494zm-7.247-16.991 7.247-8.009 7.247 8.009zm-1.253 27h17v2h-17zm17-44.4v15.8l-7.151-7.9zm-9.849 7.9-7.151 7.9v-15.8zm-11.151-12.5c0-.55228475.44771525-1 1-1s1 .44771525 1 1v51h-2zm4 54c0 .5522847-.44771525 1-1 1h-4c-.55228475 0-1-.4477153-1-1s.44771525-1 1-1h4c.55228475 0 1 .4477153 1 1zm23 0c0 .5522847-.4477153 1-1 1h-4c-.5522847 0-1-.4477153-1-1s.4477153-1 1-1h4c.5522847 0 1 .4477153 1 1zm9-7h8v4h-8zm10 4v-4h8v4z"/></g></g></g></svg>