<?xml version="1.0" encoding="iso-8859-1"?>
<!-- Generator: Adobe Illustrator 19.0.0, SVG Export Plug-In . SVG Version: 6.00 Build 0)  -->
<svg version="1.1" id="Capa_1" xmlns="http://www.w3.org/2000/svg" xmlns:xlink="http://www.w3.org/1999/xlink" x="0px" y="0px"
	 viewBox="0 0 445.7 445.7" style="enable-background:new 0 0 445.7 445.7;" xml:space="preserve">
<path style="fill:#FDC75B;" d="M402.5,150.3c11.1,8.3,11.1,24.9,0,33.3l-79.4,60c-3.6,2.7-8,4.2-12.6,4.2h-94.3h-62.5H56.1
	c-11.5,0-20.8-9.3-20.8-20.9V107c0-11.5,9.3-20.8,20.8-20.8h97.5h62.5h94.3c4.5,0,8.9,1.5,12.6,4.2L402.5,150.3z"/>
<g>
	<rect x="153.6" y="247.8" style="fill:#ED664C;" width="62.5" height="187.6"/>
	<path style="fill:#ED664C;" d="M216.2,41.3v44.8h-62.5V41.3c0-8.6,3.5-16.4,9.2-22.1S176.4,10,185,10
		C202.2,10,216.2,24.1,216.2,41.3z"/>
</g>
<path d="M408.5,142.3l-79.4-60.2c-5.3-4-11.9-6.4-18.6-6.4H226V41.3C226,18.5,207.6,0,184.8,0c-11,0-21.2,4.3-29,12.1
	s-11.9,18.2-11.9,29.2v34.4H56.1C39.1,75.7,25,90,25,107v119.9c0,17,14.1,30.8,31.1,30.8H144v177.6c0,5.5,4.1,10.4,9.6,10.4h62.5
	c5.5,0,9.8-4.8,9.8-10.4V257.7h84.5c6.7,0,13.3-2.2,18.6-6.2l79.4-60c7.8-5.9,12.3-14.8,12.3-24.6
	C420.7,157.2,416.3,148.2,408.5,142.3z M164,41.3c0-5.7,2-11,6-15s9.2-6.2,14.9-6.2c11.7,0,21.1,9.5,21.1,21.3v34.3h-42V41.3z
	 M206,425.7h-42v-168h42V425.7z M396.4,175.6L317,235.5c-1.9,1.4-4.2,2.2-6.5,2.2H56.1c-6,0-11.1-4.8-11.1-10.8V107
	c0-6,5.1-11.3,11.1-11.3h254.4c2.3,0,4.7,1,6.5,2.4l79.4,60.1c2.7,2.1,4.3,5.3,4.3,8.7S399.2,173.5,396.4,175.6z"/>
<g>
</g>
<g>
</g>
<g>
</g>
<g>
</g>
<g>
</g>
<g>
</g>
<g>
</g>
<g>
</g>
<g>
</g>
<g>
</g>
<g>
</g>
<g>
</g>
<g>
</g>
<g>
</g>
<g>
</g>
</svg>
