<?xml version="1.0" encoding="iso-8859-1"?>
<!-- Generator: Adobe Illustrator 19.0.0, SVG Export Plug-In . SVG Version: 6.00 Build 0)  -->
<svg version="1.1" id="Capa_1" xmlns="http://www.w3.org/2000/svg" xmlns:xlink="http://www.w3.org/1999/xlink" x="0px" y="0px"
	 viewBox="0 0 511.917 511.917" style="enable-background:new 0 0 511.917 511.917;" xml:space="preserve">
<g>
	<g transform="translate(1 1)">
		<path style="fill:#C52828;" d="M502.425,348.74c0.005,4.507-1.774,8.833-4.949,12.032L363.588,496.196
			c-3.181,3.223-7.504,5.062-12.032,5.12l-190.379,1.109c-0.462,0.028-0.925-0.03-1.365-0.171
			c-4.026-0.213-7.828-1.917-10.667-4.779L13.721,363.588c-3.223-3.181-5.062-7.504-5.12-12.032L7.492,161.177
			c-0.005-4.507,1.774-8.833,4.949-12.032L146.329,13.721c3.181-3.223,7.504-5.062,12.032-5.12l166.144-0.939l24.235-0.171
			c4.507-0.006,8.833,1.774,12.032,4.949l135.424,133.888c3.223,3.181,5.062,7.504,5.12,12.032L502.425,348.74z"/>
		<path style="fill:#F44335;" d="M476.825,348.74c0.045,4.515-1.74,8.856-4.949,12.032L338.073,496.196
			c-3.181,3.223-7.504,5.062-12.032,5.12l-166.229,0.939c-4.026-0.213-7.828-1.917-10.667-4.779L13.721,363.588
			c-3.223-3.181-5.062-7.504-5.12-12.032L7.492,161.177c-0.005-4.507,1.774-8.833,4.949-12.032L146.329,13.721
			c3.181-3.223,7.504-5.062,12.032-5.12l166.144-0.939c4.047,0.229,7.87,1.929,10.752,4.779l135.424,133.888
			c3.199,3.19,5.009,7.514,5.035,12.032L476.825,348.74z"/>
		<path style="fill:#C52828;" d="M468.292,338.329c0.023,2.27-0.869,4.454-2.475,6.059L346.862,464.793
			c-1.605,1.606-3.789,2.497-6.059,2.475l-169.216,1.024c-0.49,0.028-0.981-0.03-1.451-0.171h-0.256
			c-1.643-0.33-3.155-1.131-4.352-2.304L45.124,346.863c-1.606-1.605-2.498-3.789-2.475-6.059l-1.024-169.216
			c-0.023-2.27,0.869-4.454,2.475-6.059L163.054,45.124c1.605-1.606,3.789-2.498,6.059-2.475l145.067-0.853h0.256l23.893-0.171
			c2.27-0.023,4.454,0.869,6.059,2.475l120.405,118.955c1.606,1.605,2.498,3.789,2.475,6.059L468.292,338.329z"/>
		<path style="fill:#F44335;" d="M442.692,338.329c0.023,2.27-0.869,4.454-2.475,6.059L321.263,464.793
			c-1.605,1.606-3.789,2.497-6.059,2.475l-145.067,0.853h-0.256c-1.643-0.33-3.155-1.131-4.352-2.304L45.124,346.863
			c-1.606-1.605-2.498-3.789-2.475-6.059l-1.024-169.216c-0.023-2.27,0.869-4.454,2.475-6.059L163.054,45.124
			c1.605-1.606,3.789-2.498,6.059-2.475l145.067-0.853h0.256c1.643,0.33,3.155,1.131,4.352,2.304l120.405,118.955
			c1.606,1.605,2.498,3.789,2.475,6.059L442.692,338.329z"/>
		<path style="fill:#FFE0B2;" d="M348.825,173.892v161.877c0,0,0,51.541-21.76,80.469h-0.085
			c-4.446,5.892-11.392,9.365-18.773,9.387h-25.6c7.381-0.021,14.328-3.494,18.773-9.387h0.085
			c21.76-28.928,21.76-80.469,21.76-80.469V173.892c0.008-5.661-2.233-11.094-6.229-15.104c-0.71-0.72-1.481-1.376-2.304-1.963
			c6.46-4.868,15.119-5.659,22.354-2.041C344.281,158.401,348.844,165.803,348.825,173.892z"/>
		<path style="fill:#FFECB3;" d="M323.225,173.892v161.877c0,0,0,51.541-21.76,80.469h-0.085
			c-4.446,5.892-11.392,9.365-18.773,9.387h-65.877c-9.858,0.081-19.432-3.301-27.051-9.557
			c-23.467-19.797-29.525-49.237-40.363-80.299c-6.059-17.237-24.747-67.157-41.045-90.795c-5.044-7.134-4.941-16.699,0.256-23.723
			c1.005-1.289,2.149-2.462,3.413-3.499c3.617-2.949,8.133-4.575,12.8-4.608c5.512-0.012,10.788,2.24,14.592,6.229
			c4.703,4.679,9.12,9.637,13.227,14.848c10.737,14.121,19.361,29.73,25.6,46.336V141.124c0.026-7.096,3.295-13.791,8.875-18.176
			c3.872-3.139,8.76-4.748,13.739-4.523c11.279,0.678,20.074,10.034,20.053,21.333V98.457c0.026-7.096,3.295-13.791,8.875-18.176
			c3.866-3.148,8.758-4.758,13.739-4.523c11.279,0.678,20.074,10.034,20.053,21.333v25.6c0-7.622,4.066-14.664,10.667-18.475
			c6.601-3.811,14.733-3.811,21.333,0c6.601,3.811,10.667,10.854,10.667,18.475v51.2c-0.013-6.718,3.151-13.046,8.533-17.067
			c0.823,0.586,1.594,1.243,2.304,1.963C320.993,162.798,323.233,168.23,323.225,173.892z"/>
	</g>
	<g>
		<path d="M142.267,339.592c1.854,5.304,3.567,10.558,5.25,15.725c8.438,25.883,16.404,50.325,37.683,68.263
			c9.131,7.568,20.641,11.668,32.5,11.579h91.475c10.075-0.031,19.562-4.752,25.662-12.771
			c23.254-30.846,23.521-83.391,23.521-85.613V174.892c0.001-10.241-5.246-19.769-13.902-25.243
			c-8.656-5.474-19.512-6.131-28.765-1.741v-24.217c0.003-10.248-5.25-19.781-13.914-25.253s-19.529-6.119-28.782-1.714
			c-0.666-15.268-12.777-27.556-28.033-28.446c-8.026-0.482-15.886,2.431-21.658,8.029c-6.372,6.014-9.993,14.383-10.012,23.146
			v14.3c-3.452-1.629-7.185-2.583-10.996-2.808c-8.027-0.483-15.886,2.431-21.658,8.029c-6.372,6.014-9.993,14.383-10.012,23.146
			v102.812c-6.798-11.119-14.914-21.377-24.171-30.55c-10.418-10.815-27.404-11.788-38.989-2.235
			c-11.585,9.554-13.864,26.415-5.232,38.701C116.592,271.688,134.154,316.438,142.267,339.592z M116.367,227.379
			c2.085-2.748,5.268-4.445,8.711-4.647c3.443-0.201,6.802,1.115,9.193,3.601c16.518,16.473,29.149,36.426,36.971,58.404
			c1.522,3.795,5.523,5.976,9.537,5.2c4.014-0.776,6.914-4.291,6.913-8.379V142.121c0.013-4.062,1.694-7.939,4.65-10.725
			c2.366-2.34,5.605-3.58,8.929-3.417c6.771,0.378,12.057,5.998,12.021,12.779c0,0.249,0.121,0.458,0.142,0.702
			c-0.021,0.244-0.142,0.453-0.142,0.702v113.796c0,4.713,3.821,8.533,8.533,8.533c4.713,0,8.533-3.821,8.533-8.533V142.163
			c0-0.249-0.121-0.458-0.142-0.702c0.021-0.244,0.142-0.453,0.142-0.702V99.454c0.013-4.062,1.694-7.939,4.65-10.725
			c2.371-2.333,5.607-3.571,8.929-3.417c6.771,0.378,12.057,5.998,12.021,12.779v140.8c0,4.713,3.82,8.533,8.533,8.533
			s8.533-3.82,8.533-8.533v-115.2c0-7.069,5.731-12.8,12.8-12.8s12.8,5.731,12.8,12.8v51.2c0.053,0.613,0.175,1.219,0.365,1.804
			c-0.189,0.586-0.312,1.191-0.365,1.804v85.992c0,4.713,3.821,8.533,8.533,8.533c4.713,0,8.533-3.82,8.533-8.533V178.5
			c-0.053-0.613-0.175-1.218-0.365-1.804c0.189-0.586,0.312-1.191,0.365-1.804c0-7.069,5.731-12.8,12.8-12.8s12.8,5.731,12.8,12.8
			v161.883c0,0.487-0.229,49.004-20.079,75.338c-2.865,3.756-7.314,5.965-12.038,5.979H217.7c-7.833,0.09-15.447-2.586-21.5-7.558
			c-17.558-14.804-24.463-35.983-32.454-60.504c-1.725-5.279-3.475-10.65-5.371-16.075c-2.313-6.604-23.15-65.304-42.058-92.746
			C113.328,237.077,113.348,231.489,116.367,227.379z"/>
		<path d="M144.109,504.521c4.807,4.724,11.273,7.379,18.012,7.396h0.137l190.371-1.108c6.794-0.019,13.299-2.755,18.063-7.6
			l133.829-135.4c4.759-4.84,7.417-11.362,7.396-18.15l-1.108-190.371c-0.019-6.794-2.755-13.299-7.6-18.063L367.804,7.392
			c-4.841-4.755-11.36-7.411-18.146-7.392L159.288,1.109c-6.794,0.019-13.299,2.755-18.063,7.6L7.396,144.109
			c-4.759,4.84-7.417,11.362-7.396,18.15l1.108,190.37c0.019,6.794,2.755,13.299,7.6,18.063L144.109,504.521z M19.534,156.113
			L153.367,20.709c1.586-1.615,3.753-2.527,6.017-2.533l190.371-1.108h0.046c2.245,0.004,4.399,0.888,6,2.463l0.004,0.004
			l135.404,133.833c1.615,1.586,2.527,3.753,2.533,6.017l1.108,190.371c0.009,2.263-0.878,4.438-2.467,6.05L358.55,491.209
			c-1.586,1.615-3.753,2.527-6.017,2.533l-190.371,1.108h-0.046c-2.247-0.004-4.403-0.89-6.004-2.467L20.708,358.55
			c-1.615-1.586-2.527-3.753-2.533-6.017l-1.108-190.371C17.058,159.899,17.945,157.725,19.534,156.113z"/>
		<path d="M40.188,353.9l120.379,118.963c3.19,3.163,7.504,4.932,11.996,4.921h0.096l169.254-0.983
			c4.529-0.013,8.865-1.838,12.042-5.067l118.979-120.35c3.194-3.213,4.97-7.57,4.933-12.1l-0.983-169.221
			c-0.013-4.531-1.839-8.869-5.071-12.046L351.434,39.054c-3.19-3.163-7.504-4.932-11.996-4.921h-0.096l-169.254,0.983
			c-4.529,0.013-8.865,1.838-12.042,5.067L39.067,160.534c-3.194,3.213-4.97,7.57-4.933,12.1l0.983,169.225
			C35.13,346.389,36.956,350.725,40.188,353.9z M51.2,172.538L170.183,52.184L339.438,51.2l120.379,118.958l0.983,169.221
			L341.817,459.734l-169.255,0.983L52.188,341.759l-8.538,0.05l8.533-0.05L51.2,172.538z"/>
	</g>
</g>
<g>
</g>
<g>
</g>
<g>
</g>
<g>
</g>
<g>
</g>
<g>
</g>
<g>
</g>
<g>
</g>
<g>
</g>
<g>
</g>
<g>
</g>
<g>
</g>
<g>
</g>
<g>
</g>
<g>
</g>
</svg>
